<svg width="15" height="28" viewBox="0 0 15 28" fill="none" xmlns="http://www.w3.org/2000/svg">
<path d="M-2.63378 1.82936C-1.49679 -0.255461 1.49678 -0.255466 2.63378 1.82936L4.92563 6.03174C5.35712 6.82292 6.12142 7.37822 7.00722 7.5441L11.7121 8.42517C14.0463 8.86228 14.9713 11.7093 13.3399 13.4349L10.0514 16.9132C9.4323 17.5681 9.14036 18.4666 9.25633 19.3603L9.87228 24.1072C10.1779 26.4621 7.75601 28.2217 5.61073 27.2034L1.28649 25.1507C0.472366 24.7642 -0.472364 24.7642 -1.28649 25.1507L-5.61073 27.2034C-7.75601 28.2217 -10.1779 26.4621 -9.87228 24.1072L-9.25633 19.3603C-9.14036 18.4666 -9.4323 17.5681 -10.0514 16.9132L-13.3399 13.4349C-14.9713 11.7093 -14.0463 8.86228 -11.7121 8.42517L-7.00722 7.5441C-6.12142 7.37822 -5.35712 6.82293 -4.92563 6.03174L-2.63378 1.82936Z" fill="#FFB648"/>
</svg>
